<svg width="52" height="41" fill="none" xmlns="http://www.w3.org/2000/svg"><path d="M4.99 24.034a2.465 2.465 0 00-3.381 3.588l3.382-3.588zm9.947 12.762l-1.69 1.794 1.69-1.794zm9.029-.87l-1.96-1.497 1.96 1.497zm27.493-31.93a2.465 2.465 0 00-3.918-2.993l3.918 2.994zM1.609 27.623L13.246 38.59l3.382-3.588L4.99 24.034l-3.382 3.588zm24.316 9.8L51.459 3.997 47.54 1.002 22.007 34.43l3.918 2.993zM13.246 38.59c3.847 3.625 9.496 2.998 12.679-1.168l-3.918-2.993c-1.496 1.958-3.766 2.094-5.38.573l-3.38 3.588z" fill="#fff"/></svg>