<svg width="108" height="109" viewBox="0 0 108 109" fill="none" xmlns="http://www.w3.org/2000/svg">
<path d="M58.525 10.767L25.5591 19.6002C12.6693 23.054 6.4248 34.4264 10.0314 47.8866L18.3562 78.9552C21.9527 92.3773 33.0457 99.1001 45.9355 95.6463L78.9015 86.8131C91.7913 83.3593 97.9988 72.0008 94.4023 58.5787L86.0775 27.5101C82.4709 14.05 71.4148 7.3132 58.525 10.767V10.767Z" fill="url(#paint0_linear_903_3645)"/>
<g filter="url(#filter0_f_903_3645)">
<rect x="33.3555" y="82.7422" width="50.7999" height="52.1862" rx="19" transform="rotate(-105 33.3555 82.7422)" fill="#019EEB" fill-opacity="0.5"/>
</g>
<path fill-rule="evenodd" clip-rule="evenodd" d="M45.023 39.6153C45.511 41.4366 47.3923 42.5259 49.1794 42.0471C51.0805 41.5377 52.1651 39.6536 51.677 37.8323C51.1778 35.9692 49.2976 34.8836 47.4725 35.3727C45.6093 35.8719 44.5238 37.7521 45.023 39.6153ZM56.913 70.9075C58.7761 70.4083 59.8617 68.5281 59.3726 66.703L54.8694 49.8968C54.3794 48.0679 52.49 46.9481 50.6268 47.4473C48.8017 47.9363 47.7253 49.8508 48.2154 51.6797L52.7186 68.4859C53.2076 70.311 55.0879 71.3966 56.913 70.9075Z" fill="white"/>
<g filter="url(#filter1_b_903_3645)">
<path d="M84.7199 29.2715H50.5911C37.2466 29.2715 28.2715 38.6402 28.2715 52.5752V84.7398C28.2715 98.6354 37.2466 108 50.5911 108H84.7199C98.0645 108 107 98.6354 107 84.7398V52.5752C107 38.6402 98.0645 29.2715 84.7199 29.2715V29.2715Z" fill="#0E72A4" fill-opacity="0.35"/>
<path d="M84.7199 28.7715H50.5911C43.7974 28.7715 38.082 31.159 34.066 35.3519C30.0518 39.5428 27.7715 45.4993 27.7715 52.5752V84.7398C27.7715 91.7963 30.052 97.742 34.0662 101.927C38.0822 106.114 43.7975 108.5 50.5911 108.5H84.7199C91.5136 108.5 97.2193 106.114 101.226 101.926C105.23 97.7414 107.5 91.7957 107.5 84.7398V52.5752C107.5 45.4999 105.23 39.5435 101.226 35.3523C97.2195 31.1591 91.5137 28.7715 84.7199 28.7715Z" stroke="url(#paint1_linear_903_3645)" stroke-linecap="round" stroke-linejoin="round"/>
</g>
<g filter="url(#filter2_bd_903_3645)">
<mask id="path-6-inside-1_903_3645" fill="white">
<path fill-rule="evenodd" clip-rule="evenodd" d="M64.2102 53.6418C64.2102 55.5273 65.7454 57.0665 67.5955 57.0665C69.5637 57.0665 71.099 55.5273 71.099 53.6418C71.099 51.7129 69.5637 50.1777 67.6743 50.1777C65.7454 50.1777 64.2102 51.7129 64.2102 53.6418ZM67.5956 86.944C69.5244 86.944 71.0597 85.4088 71.0597 83.5194V66.1203C71.0597 64.2269 69.5244 62.6562 67.5956 62.6562C65.7061 62.6562 64.1709 64.2269 64.1709 66.1203V83.5194C64.1709 85.4088 65.7061 86.944 67.5956 86.944Z"/>
</mask>
<path fill-rule="evenodd" clip-rule="evenodd" d="M64.2102 53.6418C64.2102 55.5273 65.7454 57.0665 67.5955 57.0665C69.5637 57.0665 71.099 55.5273 71.099 53.6418C71.099 51.7129 69.5637 50.1777 67.6743 50.1777C65.7454 50.1777 64.2102 51.7129 64.2102 53.6418ZM67.5956 86.944C69.5244 86.944 71.0597 85.4088 71.0597 83.5194V66.1203C71.0597 64.2269 69.5244 62.6562 67.5956 62.6562C65.7061 62.6562 64.1709 64.2269 64.1709 66.1203V83.5194C64.1709 85.4088 65.7061 86.944 67.5956 86.944Z" fill="url(#paint2_linear_903_3645)"/>
<path d="M67.5955 56.6665C65.9696 56.6665 64.6102 55.3097 64.6102 53.6418H63.8102C63.8102 55.7449 65.5212 57.4665 67.5955 57.4665V56.6665ZM70.699 53.6418C70.699 55.3008 69.3485 56.6665 67.5955 56.6665V57.4665C69.779 57.4665 71.499 55.7539 71.499 53.6418H70.699ZM67.6743 50.5777C69.3399 50.5777 70.699 51.9309 70.699 53.6418H71.499C71.499 51.495 69.7876 49.7777 67.6743 49.7777V50.5777ZM64.6102 53.6418C64.6102 51.9339 65.9663 50.5777 67.6743 50.5777V49.7777C65.5245 49.7777 63.8102 51.492 63.8102 53.6418H64.6102ZM70.6597 83.5194C70.6597 85.185 69.3065 86.544 67.5956 86.544V87.3441C69.7424 87.3441 71.4597 85.6327 71.4597 83.5194H70.6597ZM70.6597 66.1203V83.5194H71.4597V66.1203H70.6597ZM67.5956 63.0562C69.3009 63.0562 70.6597 64.4451 70.6597 66.1203H71.4597C71.4597 64.0086 69.748 62.2563 67.5956 62.2563V63.0562ZM64.5709 66.1203C64.5709 64.4421 65.9326 63.0562 67.5956 63.0562V62.2563C65.4796 62.2563 63.7709 64.0116 63.7709 66.1203H64.5709ZM64.5709 83.5194V66.1203H63.7709V83.5194H64.5709ZM67.5956 86.544C65.927 86.544 64.5709 85.1879 64.5709 83.5194H63.7709C63.7709 85.6298 65.4852 87.3441 67.5956 87.3441V86.544Z" fill="url(#paint3_linear_903_3645)" mask="url(#path-6-inside-1_903_3645)"/>
</g>
<defs>
<filter id="filter0_f_903_3645" x="0.472656" y="0.431641" width="103.025" height="102.045" filterUnits="userSpaceOnUse" color-interpolation-filters="sRGB">
<feFlood flood-opacity="0" result="BackgroundImageFix"/>
<feBlend mode="normal" in="SourceGraphic" in2="BackgroundImageFix" result="shape"/>
<feGaussianBlur stdDeviation="12" result="effect1_foregroundBlur_903_3645"/>
</filter>
<filter id="filter1_b_903_3645" x="3.27148" y="4.27148" width="128.729" height="128.729" filterUnits="userSpaceOnUse" color-interpolation-filters="sRGB">
<feFlood flood-opacity="0" result="BackgroundImageFix"/>
<feGaussianBlur in="BackgroundImageFix" stdDeviation="12"/>
<feComposite in2="SourceAlpha" operator="in" result="effect1_backgroundBlur_903_3645"/>
<feBlend mode="normal" in="SourceGraphic" in2="effect1_backgroundBlur_903_3645" result="shape"/>
</filter>
<filter id="filter2_bd_903_3645" x="49.1709" y="35.1777" width="36.9277" height="66.7656" filterUnits="userSpaceOnUse" color-interpolation-filters="sRGB">
<feFlood flood-opacity="0" result="BackgroundImageFix"/>
<feGaussianBlur in="BackgroundImageFix" stdDeviation="7.5"/>
<feComposite in2="SourceAlpha" operator="in" result="effect1_backgroundBlur_903_3645"/>
<feColorMatrix in="SourceAlpha" type="matrix" values="0 0 0 0 0 0 0 0 0 0 0 0 0 0 0 0 0 0 127 0" result="hardAlpha"/>
<feOffset dx="5" dy="5"/>
<feGaussianBlur stdDeviation="5"/>
<feColorMatrix type="matrix" values="0 0 0 0 0.577356 0 0 0 0 0.359375 0 0 0 0 0.9375 0 0 0 0.5 0"/>
<feBlend mode="normal" in2="effect1_backgroundBlur_903_3645" result="effect2_dropShadow_903_3645"/>
<feBlend mode="normal" in="SourceGraphic" in2="effect2_dropShadow_903_3645" result="shape"/>
</filter>
<linearGradient id="paint0_linear_903_3645" x1="42.023" y1="15.1887" x2="62.3995" y2="91.2348" gradientUnits="userSpaceOnUse">
<stop stop-color="#7B98FE"/>
<stop offset="1" stop-color="#0134EB"/>
</linearGradient>
<linearGradient id="paint1_linear_903_3645" x1="40.8038" y1="38.4435" x2="91.0243" y2="100.643" gradientUnits="userSpaceOnUse">
<stop stop-color="white" stop-opacity="0.25"/>
<stop offset="1" stop-color="white" stop-opacity="0"/>
</linearGradient>
<linearGradient id="paint2_linear_903_3645" x1="67.6357" y1="52.2516" x2="61.2599" y2="51.7476" gradientUnits="userSpaceOnUse">
<stop stop-color="white" stop-opacity="0.75"/>
<stop offset="1" stop-color="white" stop-opacity="0.2"/>
</linearGradient>
<linearGradient id="paint3_linear_903_3645" x1="65.2737" y1="54.4611" x2="75.8937" y2="56.9396" gradientUnits="userSpaceOnUse">
<stop stop-color="white" stop-opacity="0.25"/>
<stop offset="1" stop-color="white" stop-opacity="0"/>
</linearGradient>
</defs>
</svg>
