<svg width="52" height="41" viewBox="0 0 52 41" fill="none" xmlns="http://www.w3.org/2000/svg">
<path d="M4.99066 24.0336C3.99989 23.0998 2.43968 23.1459 1.50584 24.1367C0.572008 25.1275 0.618169 26.6877 1.60895 27.6215L4.99066 24.0336ZM14.937 36.7959L13.2461 38.5899L14.937 36.7959ZM23.9657 35.9258L22.0067 34.4293L23.9657 35.9258ZM51.4588 3.9965C52.2853 2.91457 52.0782 1.36747 50.9963 0.540977C49.9144 -0.28552 48.3673 -0.0784433 47.5408 1.0035L51.4588 3.9965ZM1.60895 27.6215L13.2461 38.5899L16.6279 35.002L4.99066 24.0336L1.60895 27.6215ZM25.9248 37.4223L51.4588 3.9965L47.5408 1.0035L22.0067 34.4293L25.9248 37.4223ZM13.2461 38.5899C17.0927 42.2154 22.7425 41.5881 25.9248 37.4223L22.0067 34.4293C20.5112 36.387 18.2415 36.5229 16.6279 35.002L13.2461 38.5899Z" fill="white"/>
</svg>
